<?xml version="1.0" standalone="no"?>
<!DOCTYPE svg PUBLIC "-//W3C//DTD SVG 20010904//EN"
 "http://www.w3.org/TR/2001/REC-SVG-20010904/DTD/svg10.dtd">
<svg version="1.0" xmlns="http://www.w3.org/2000/svg"
 width="186.000000pt" height="186.000000pt" viewBox="0 0 186.000000 186.000000"
 preserveAspectRatio="xMidYMid meet">
<metadata>
Created by potrace 1.11, written by Peter Selinger 2001-2013
</metadata>
<g transform="translate(0.000000,186.000000) scale(0.100000,-0.100000)"
fill="#000000" stroke="none">
<path d="M585 1743 c-17 -3 -23 -20 -41 -114 -11 -60 -18 -111 -16 -114 3 -3
62 -5 132 -5 l127 0 22 112 c17 88 18 114 9 120 -12 8 -189 8 -233 1z"/>
<path d="M1078 1743 c-10 -2 -20 -14 -23 -26 -5 -23 -59 -277 -120 -567 -117
-560 -142 -685 -138 -690 3 -3 56 -5 119 -5 l115 0 8 35 c5 19 12 47 15 62 l6
27 55 -54 c184 -180 482 -102 622 162 65 120 96 318 72 448 -21 113 -89 207
-178 247 -91 42 -252 28 -350 -29 l-44 -25 6 23 c43 184 78 382 68 388 -13 8
-207 12 -233 4z m381 -538 c75 -38 106 -112 98 -229 -12 -186 -108 -332 -226
-344 -76 -7 -148 44 -176 124 -24 70 -3 230 42 319 61 118 176 175 262 130z"/>
<path d="M502 1381 c-6 -3 -22 -65 -37 -136 -88 -431 -176 -819 -194 -860 -33
-74 -54 -86 -133 -79 l-66 6 -16 -74 c-9 -40 -17 -88 -19 -107 -2 -30 1 -35
28 -43 54 -16 172 -20 227 -9 129 28 180 79 227 226 45 140 245 1071 232 1080
-11 6 -238 3 -249 -4z"/>
</g>
</svg>
